Coordinates
version=1
nRows=9
nColumns=63
inDegrees=yes

Units are S.I. units (second, meters, Newtons, ...)
If the header above contains a line with 'inDegrees', this indicates whether rotational values are in degrees (yes) or radians (no).

endheader
time	pelvis_tilt	pelvis_list	pelvis_rotation	pelvis_tx	pelvis_ty	pelvis_tz	hip_flexion_r	hip_adduction_r	hip_rotation_r	knee_angle_r	knee_angle_r_beta	ankle_angle_r	subtalar_angle_r	mtp_angle_r	hip_flexion_l	hip_adduction_l	hip_rotation_l	knee_angle_l	knee_angle_l_beta	ankle_angle_l	subtalar_angle_l	mtp_angle_l	L5_S1_Flex_Ext	L5_S1_Lat_Bending	L5_S1_axial_rotation	L4_L5_Flex_Ext	L4_L5_Lat_Bending	L4_L5_axial_rotation	L3_L4_Flex_Ext	L3_L4_Lat_Bending	L3_L4_axial_rotation	L2_L3_Flex_Ext	L2_L3_Lat_Bending	L2_L3_axial_rotation	L1_L2_Flex_Ext	L1_L2_Lat_Bending	L1_L2_axial_rotation	L1_T12_Flex_Ext	L1_T12_Lat_Bending	L1_T12_axial_rotation	Abs_r3	Abs_r2	Abs_r1	Abs_t1	Abs_t2	neck_flexion	neck_bending	neck_rotation	arm_flex_r	arm_add_r	arm_rot_r	elbow_flex_r	pro_sup_r	wrist_flex_r	wrist_dev_r	arm_flex_l	arm_add_l	arm_rot_l	elbow_flex_l	pro_sup_l	wrist_flex_l	wrist_dev_l
1.765957	9.246071	-15.348480	109.644301	0.467819	0.798899	0.964705	12.931143	9.301536	-4.769076	6.632903	0.115766	18.470829	-15.934098	0.000000	17.849250	-7.730020	7.021379	15.360485	0.268091	26.919700	-1.730570	0.000000	-0.120155	-0.561385	-0.732011	-0.223139	-0.746642	-0.777762	-0.197402	-1.364951	-0.777762	-0.137325	-1.364951	-0.640510	-0.111576	-1.144776	-0.594759	-0.068656	-0.869585	-0.549008	-0.858253	-6.350498	-4.071226	0.000000	0.000000	21.405865	5.527149	-15.160787	89.527891	-7.589799	-7.969272	70.826594	87.730670	-3.524614	-4.258184	8.535495	-3.140296	152.405593	0.657626	15.359840	-10.033050	6.213693
1.787234	9.716548	-15.467188	110.281594	0.467160	0.798332	0.965787	12.914113	9.591526	-4.896082	5.770614	0.100716	18.577218	-15.756347	0.000000	18.187958	-7.981852	7.690753	15.299964	0.267035	27.037510	-1.541353	0.000000	-0.126568	-0.508107	-0.752667	-0.235049	-0.675782	-0.799708	-0.207938	-1.235410	-0.799708	-0.144654	-1.235410	-0.658583	-0.117531	-1.036131	-0.611542	-0.072321	-0.787057	-0.564500	-0.904059	-5.747802	-4.186107	0.000000	0.000000	22.001189	5.811494	-14.658511	90.210403	-7.736546	-7.645409	70.654506	87.644149	-2.215650	-1.721783	8.700589	-2.944982	152.368806	0.651314	14.000834	-10.236803	5.709330
1.808511	10.122157	-15.580430	110.745835	0.466679	0.797818	0.966767	12.898607	9.856568	-4.893055	4.966838	0.086688	18.675847	-15.596087	0.000000	18.475919	-8.202107	8.258220	15.224842	0.265724	27.164777	-1.424745	0.000000	-0.130763	-0.461193	-0.744969	-0.242840	-0.613387	-0.791530	-0.214831	-1.121345	-0.791530	-0.149449	-1.121345	-0.651848	-0.121427	-0.940465	-0.605288	-0.074718	-0.714388	-0.558727	-0.934029	-5.217111	-4.143296	0.000000	0.000000	22.611201	6.180019	-14.212886	90.801278	-7.944132	-7.035328	70.781094	87.605815	-1.142445	1.191356	8.860386	-2.771379	152.363669	0.642526	12.501241	-10.487216	5.232420
1.829787	10.464157	-15.683775	111.097615	0.466303	0.797341	0.967675	12.886995	10.083558	-4.853464	4.245207	0.074093	18.774489	-15.425877	0.000000	18.724250	-8.379095	8.791139	15.147390	0.264372	27.304660	-1.394652	0.000000	-0.136234	-0.420082	-0.727009	-0.253001	-0.558710	-0.772447	-0.223819	-1.021388	-0.772447	-0.155702	-1.021388	-0.636133	-0.126507	-0.856632	-0.590695	-0.077844	-0.650708	-0.545256	-0.973109	-4.752056	-4.043404	0.000000	0.000000	23.241390	6.561459	-13.791083	91.329159	-8.148499	-6.083632	71.088130	87.609669	-0.460871	4.145929	9.020706	-2.618795	152.486310	0.626683	10.960035	-10.736102	4.803506
1.851064	10.748560	-15.795921	111.338622	0.466042	0.796866	0.968494	12.901344	10.275634	-4.775508	3.619750	0.063177	18.875745	-15.258428	0.000000	18.953174	-8.517981	9.269630	15.070434	0.263029	27.456253	-1.428001	0.000000	-0.139933	-0.384931	-0.699188	-0.259869	-0.511959	-0.742887	-0.229896	-0.935922	-0.742887	-0.159929	-0.935922	-0.611790	-0.129942	-0.784952	-0.568090	-0.079958	-0.596259	-0.524391	-0.999527	-4.354419	-3.888675	0.000000	0.000000	23.878698	6.900264	-13.415523	91.798478	-8.303107	-4.805904	71.495572	87.654509	-0.270973	6.960151	9.178270	-2.483961	152.744071	0.610616	9.489914	-10.986649	4.449410
1.872340	10.974446	-15.935063	111.434558	0.465923	0.796367	0.969209	12.957586	10.431376	-4.611415	3.096929	0.054052	18.992910	-15.104395	0.000000	19.169264	-8.618751	9.638322	14.986907	0.261571	27.612529	-1.515902	0.000000	-0.139747	-0.355661	-0.654264	-0.259524	-0.473029	-0.695155	-0.229591	-0.864753	-0.695155	-0.159717	-0.864753	-0.572481	-0.129769	-0.725263	-0.531589	-0.079852	-0.550918	-0.490698	-0.998200	-4.023304	-3.638818	0.000000	0.000000	24.520978	7.077374	-13.108190	92.241558	-8.393464	-3.195999	71.923914	87.743408	-0.621134	9.529265	9.328036	-2.357674	153.134660	0.593632	8.155154	-11.250957	4.156038
1.893617	11.159114	-16.101677	111.518997	0.465814	0.795841	0.969838	13.059756	10.538234	-4.486541	2.667465	0.046556	19.132655	-14.982590	0.000000	19.403159	-8.665898	10.052521	14.910921	0.260245	27.780896	-1.668699	0.000000	-0.137374	-0.331491	-0.607389	-0.255117	-0.440882	-0.645351	-0.225691	-0.805986	-0.645351	-0.157004	-0.805986	-0.531465	-0.127565	-0.675976	-0.493504	-0.078495	-0.513479	-0.455542	-0.981247	-3.749888	-3.378116	0.000000	0.000000	25.143181	7.086107	-12.903050	92.688825	-8.475799	-1.272642	72.212803	87.874937	-1.477645	11.506684	9.496721	-2.220530	153.699120	0.575884	7.536405	-11.437163	4.020772
1.914894	11.318283	-16.302460	111.586411	0.465753	0.795276	0.970383	13.220380	10.611034	-4.380209	2.322383	0.040533	19.296132	-14.900095	0.000000	19.666871	-8.678735	10.443886	14.840291	0.259012	27.985240	-1.799121	0.000000	-0.130767	-0.311578	-0.557926	-0.242847	-0.414399	-0.592796	-0.214837	-0.757571	-0.592796	-0.149453	-0.757571	-0.488185	-0.121430	-0.635370	-0.453315	-0.074720	-0.482634	-0.418444	-0.934055	-3.524633	-3.103015	0.000000	0.000000	25.716222	6.897312	-12.831795	93.180965	-8.547442	0.998972	72.236554	88.047870	-2.818323	12.759570	9.668822	-2.077653	154.528222	0.558774	7.543538	-11.544054	4.041006
1.936170	11.424336	-16.552759	111.584085	0.465810	0.794684	0.970801	13.440902	10.629780	-4.210132	2.056811	0.035898	19.488557	-14.874327	0.000000	19.942628	-8.640181	10.760100	14.750677	0.257448	28.209126	-1.924788	0.000000	-0.118020	-0.300527	-0.489841	-0.219175	-0.399701	-0.520456	-0.193895	-0.730702	-0.520456	-0.134885	-0.730702	-0.428611	-0.109593	-0.612835	-0.397996	-0.067437	-0.465517	-0.367381	-0.843004	-3.399623	-2.724348	0.000000	0.000000	26.207130	6.498898	-12.943694	93.667664	-8.567645	3.354631	72.036747	88.258941	-4.324601	13.764782	9.842605	-1.940513	155.599911	0.545073	8.109325	-11.549110	4.223690
